<svg width="99" height="32" viewBox="0 0 99 32" fill="none" xmlns="http://www.w3.org/2000/svg">
<path d="M33.9934 7.89198C33.9536 7.5478 33.7264 7.24318 33.3867 7.09399L17.4492 0.0940403C17.1644 -0.0310213 16.8354 -0.0310213 16.5506 0.0940403L0.613129 7.09399C0.273527 7.24318 0.0462852 7.54774 0.00650781 7.89198C0.00564453 7.89917 0 7.99492 0 8.00017V25C0 25.4089 0.264496 25.7767 0.667914 25.9285L16.6054 31.9284C16.7321 31.9761 16.8661 32 17 32C17.1339 32 17.2679 31.9762 17.3946 31.9284L33.3321 25.9285C33.7355 25.7767 34 25.4089 34 25V8.00017C34 7.99492 33.9942 7.89911 33.9934 7.89198ZM17 2.10371L30.2642 7.92955L25.1567 9.85241L11.6428 4.4567L17 2.10371ZM9.05184 5.59469L22.3561 10.9067L17 12.9231L3.73575 7.92955L9.05184 5.59469ZM2.125 9.47716L15.9375 14.6771V29.523L2.125 24.323V9.47716ZM18.0625 29.523V14.6771L31.875 9.47716V24.323L18.0625 29.523Z" fill="#0A143A"/>
<path d="M53.1562 18.4844H46.9922L45.8203 22H42.082L48.4336 4.93749H51.6914L58.0781 22H54.3398L53.1562 18.4844ZM47.9414 15.6367H52.207L50.0625 9.24999L47.9414 15.6367Z" fill="#0A143A"/>
<path d="M70.875 15.7773C70.875 17.8086 70.4414 19.3945 69.5742 20.5352C68.707 21.668 67.4961 22.2344 65.9414 22.2344C64.5664 22.2344 63.4688 21.707 62.6484 20.6523L62.4961 22H59.4492V3.99999H62.8359V10.457C63.6172 9.54296 64.6445 9.08593 65.918 9.08593C67.4648 9.08593 68.6758 9.65624 69.5508 10.7969C70.4336 11.9297 70.875 13.5273 70.875 15.5898V15.7773ZM67.4883 15.5312C67.4883 14.25 67.2852 13.3164 66.8789 12.7305C66.4727 12.1367 65.8672 11.8398 65.0625 11.8398C63.9844 11.8398 63.2422 12.2812 62.8359 13.1641V18.168C63.25 19.0586 64 19.5039 65.0859 19.5039C66.1797 19.5039 66.8984 18.9648 67.2422 17.8867C67.4062 17.3711 67.4883 16.5859 67.4883 15.5312Z" fill="#0A143A"/>
<path d="M76.5469 22H73.1484V9.32031H76.5469V22ZM72.9492 6.03906C72.9492 5.53124 73.1172 5.11328 73.4531 4.78515C73.7969 4.45703 74.2617 4.29296 74.8477 4.29296C75.4258 4.29296 75.8867 4.45703 76.2305 4.78515C76.5742 5.11328 76.7461 5.53124 76.7461 6.03906C76.7461 6.55468 76.5703 6.97656 76.2188 7.30468C75.875 7.63281 75.418 7.79687 74.8477 7.79687C74.2773 7.79687 73.8164 7.63281 73.4648 7.30468C73.1211 6.97656 72.9492 6.55468 72.9492 6.03906Z" fill="#0A143A"/>
<path d="M83.4023 6.20312V9.32031H85.5703V11.8047H83.4023V18.1328C83.4023 18.6016 83.4922 18.9375 83.6719 19.1406C83.8516 19.3437 84.1953 19.4453 84.7031 19.4453C85.0781 19.4453 85.4102 19.418 85.6992 19.3633V21.9297C85.0352 22.1328 84.3516 22.2344 83.6484 22.2344C81.2734 22.2344 80.0625 21.0352 80.0156 18.6367V11.8047H78.1641V9.32031H80.0156V6.20312H83.4023Z" fill="#0A143A"/>
<path d="M86.5781 15.543C86.5781 14.2852 86.8203 13.1641 87.3047 12.1797C87.7891 11.1953 88.4844 10.4336 89.3906 9.89453C90.3047 9.35546 91.3633 9.08593 92.5664 9.08593C94.2773 9.08593 95.6719 9.60937 96.75 10.6562C97.8359 11.7031 98.4414 13.125 98.5664 14.9219L98.5898 15.7891C98.5898 17.7344 98.0469 19.2969 96.9609 20.4766C95.875 21.6484 94.418 22.2344 92.5898 22.2344C90.7617 22.2344 89.3008 21.6484 88.207 20.4766C87.1211 19.3047 86.5781 17.7109 86.5781 15.6953V15.543ZM89.9648 15.7891C89.9648 16.9922 90.1914 17.9141 90.6445 18.5547C91.0977 19.1875 91.7461 19.5039 92.5898 19.5039C93.4102 19.5039 94.0508 19.1914 94.5117 18.5664C94.9727 17.9336 95.2031 16.9258 95.2031 15.543C95.2031 14.3633 94.9727 13.4492 94.5117 12.8008C94.0508 12.1523 93.4023 11.8281 92.5664 11.8281C91.7383 11.8281 91.0977 12.1523 90.6445 12.8008C90.1914 13.4414 89.9648 14.4375 89.9648 15.7891Z" fill="#0A143A"/>
</svg>
